# xmcd CD database file
# Copyright (C) 1995-1998 Ti Kan
#
# Track frame offsets:
#	182
#	16675
#	31485
#	47162
#	63892
#	78195
#	93487
#	107465
#	123155
#	137415
#
# Disc length: 1995 seconds
#
# Revision: 2
# Processed by: cddbd v1.4b42PL1 Copyright (c) Steve Scherf et al.
# Submitted via: CDex 1.30Release
#
DISCID=6d07c90a
DTITLE=Tammy Graham - Tammy Graham
DYEAR=1996
DGENRE=Country
TTITLE0=Let The Girl Be Herself
TTITLE1=When The Blues And My Baby Collide
TTITLE2=Better Men Have Tried
TTITLE3=Cool Water
TTITLE4=Dancin'  With Elvis
TTITLE5=Tell Me Again
TTITLE6=A Dozen Red Roses
TTITLE7=More About Love
TTITLE8=Old Heartaches
TTITLE9=Houdini
EXTD=YEAR: 1996 ID3G:   2
EXTT0=
EXTT1=
EXTT2=
EXTT3=
EXTT4=
EXTT5=
EXTT6=
EXTT7=
EXTT8=
EXTT9=
PLAYORDER=
